<?xml version="1.0" standalone="no"?>
<!DOCTYPE svg PUBLIC "-//W3C//DTD SVG 20010904//EN"
 "http://www.w3.org/TR/2001/REC-SVG-20010904/DTD/svg10.dtd">
<svg version="1.0" xmlns="http://www.w3.org/2000/svg"
 width="190.000000pt" height="190.000000pt" viewBox="0 0 190.000000 190.000000"
 preserveAspectRatio="xMidYMid meet">
<metadata>
Created by potrace 1.14, written by Peter Selinger 2001-2017
</metadata>
<g transform="translate(0.000000,190.000000) scale(0.100000,-0.100000)"
fill="#000000" stroke="none">
<path d="M811 1319 c-14 -5 -44 -27 -68 -49 -47 -44 -78 -52 -80 -19 -3 41
-21 50 -97 47 -69 -3 -72 -4 -86 -34 -9 -19 -31 -39 -55 -50 -79 -38 -80 -40
-83 -349 -3 -244 -1 -274 14 -289 15 -15 39 -17 198 -14 l181 3 102 46 102 47
70 -34 c128 -61 149 -65 336 -62 169 3 169 3 182 28 10 19 13 88 11 287 -3
247 -4 263 -24 290 -38 52 -76 63 -211 63 l-122 0 -47 41 c-26 22 -58 45 -71
50 -32 12 -221 10 -252 -2z m280 -67 c67 -59 77 -62 208 -62 204 0 201 5 201
-340 l0 -251 -182 3 -183 3 -72 34 c-40 19 -73 37 -73 40 0 4 34 29 76 56 172
112 218 230 124 320 -24 23 -41 30 -88 33 -58 4 -94 -8 -154 -50 -14 -10 -21
-8 -40 9 -47 44 -141 57 -199 28 -72 -38 -92 -141 -40 -212 35 -49 99 -105
168 -146 29 -18 53 -35 53 -38 0 -4 -33 -21 -72 -40 l-73 -34 -182 -3 -183 -4
0 256 c0 176 4 263 12 281 20 45 55 55 188 55 133 0 143 3 207 61 l43 39 108
0 109 0 44 -38z m-467 22 c9 -3 16 -15 16 -25 0 -17 -8 -19 -70 -19 -62 0 -70
2 -70 19 0 11 6 22 13 24 18 8 93 8 111 1z m244 -240 c13 -9 31 -29 40 -45 22
-37 38 -37 57 1 41 78 190 87 224 13 20 -44 13 -89 -22 -135 -39 -51 -213
-171 -236 -163 -38 14 -127 74 -177 119 -83 73 -100 117 -68 177 29 57 121 73
182 33z"/>
<path d="M1353 1104 c0 -14 4 -23 11 -21 17 6 19 34 3 40 -10 4 -14 -2 -14
-19z"/>
</g>
</svg>
